# xmcd CD database file
#
# Track frame offsets:
#	150
#	13430
#	30477
#	45835
#	64582
#	79154
#	96207
#	111475
#	125857
#	140932
#	156647
#	173807
#	187766
#	203045
#
# Disc length: 2906 seconds
#
# Revision: 0
# Processed by: cddbd v1.5.2PL0 Copyright (c) Steve Scherf et al.
# Submitted via: CDex 1.77
#
DISCID=c70b580e
DTITLE=Cole Swindell - You Should Be Here
DYEAR=2016
DGENRE=Country
TTITLE0=Flatliner (feat. Dierks Bentley)
TTITLE1=Middle of a Memory
TTITLE2=Broke Down
TTITLE3=Home Game
TTITLE4=Up
TTITLE5=Party Wasn't Over
TTITLE6=Stay Downtown
TTITLE7=You Should Be Here
TTITLE8=Stars
TTITLE9=Making My Way to You
TTITLE10=No Can Left Behind
TTITLE11=Remember Boys
TTITLE12=Hoppin' (Bonus Track)
TTITLE13=Gettin' Forgotten (Bonus Track)
EXTD=YEAR: 2016
EXTT0=
EXTT1=
EXTT2=
EXTT3=
EXTT4=
EXTT5=
EXTT6=
EXTT7=
EXTT8=
EXTT9=
EXTT10=
EXTT11=
EXTT12=
EXTT13=
PLAYORDER=
